<?xml version="1.0" encoding="UTF-8"?>
<svg id="Layer_1" data-name="Layer 1" xmlns="http://www.w3.org/2000/svg" viewBox="0 0 105.99 106.02">
  <defs>
    <style>
      .cls-1 {
        fill: rgba(255, 255, 255, 0.25);
        font-family: 'Inter', sans-serif;
        font-size: 22px;
        font-weight: 500;
      }
    </style>
  </defs>
  <text class="cls-1" transform="translate(52.31 18.48) rotate(10.98)"><tspan x="0" y="0">P</tspan></text>
  <text class="cls-1" transform="translate(65.37 20.79) rotate(33.1)"><tspan x="0" y="0">R</tspan></text>
  <text class="cls-1" transform="translate(76.56 27.64) rotate(55.79)"><tspan x="0" y="0">O</tspan></text>
  <text class="cls-1" transform="translate(84.54 39.43) rotate(77.27)"><tspan x="0" y="0">J</tspan></text>
  <text class="cls-1" transform="translate(87.25 50.56) rotate(96.39)"><tspan x="0" y="0">E</tspan></text>
  <text class="cls-1" transform="translate(86.38 62) rotate(117.34)"><tspan x="0" y="0">C</tspan></text>
  <text class="cls-1" transform="translate(80.51 73.82) rotate(138.63)"><tspan x="0" y="0">T</tspan></text>
  <text class="cls-1" transform="translate(71.27 82.29) rotate(159.49)"><tspan x="0" y="0">S</tspan></text>
  <text class="cls-1" transform="translate(59.09 86.4) rotate(174.38)"><tspan x="0" y="0"> </tspan></text>
  <text class="cls-1" transform="translate(54.44 87.58) rotate(-170.41)"><tspan x="0" y="0">P</tspan></text>
  <text class="cls-1" transform="translate(41.32 85.59) rotate(-148.28)"><tspan x="0" y="0">R</tspan></text>
  <text class="cls-1" transform="translate(29.99 79.03) rotate(-125.63)"><tspan x="0" y="0">O</tspan></text>
  <text class="cls-1" transform="translate(21.71 67.41) rotate(-104.12)"><tspan x="0" y="0">J</tspan></text>
  <text class="cls-1" transform="translate(18.74 56.37) rotate(-85.01)"><tspan x="0" y="0">E</tspan></text>
  <text class="cls-1" transform="translate(19.33 44.89) rotate(-64.06)"><tspan x="0" y="0">C</tspan></text>
  <text class="cls-1" transform="translate(24.9 32.96) rotate(-42.78)"><tspan x="0" y="0">T</tspan></text>
  <text class="cls-1" transform="translate(33.93 24.26) rotate(-21.92)"><tspan x="0" y="0">S</tspan></text>
</svg>